# xmcd CD database file
#
# Track frame offsets:
#	150
#	15587
#	31287
#	48613
#	62253
#	75439
#	90922
#	105940
#	124173
#	144573
#	163314
#	178804
#	200420
#	225552
#	245568
#	260849
#	280531
#	299736
#	328313
#	339588
#
# Disc length: 4699 seconds
#
# Revision: 1
# Processed by: cddbd v1.5.2PL0 Copyright (c) Steve Scherf et al.
# Submitted via: CDex 1.51
#
DISCID=1f125914
DTITLE=Billie Holiday - Lady in Satin (Remastered)
DYEAR=2013
DGENRE=Jazz
TTITLE0=I'm A Fool To Want You
TTITLE1=For Heaven's Sake
TTITLE2=You Don't Know What Love Is
TTITLE3=I Get Along Without You Very Well
TTITLE4=For All We Know
TTITLE5=Violetes For Your Furs
TTITLE6=You've Changed
TTITLE7=It's Easy To Remember
TTITLE8=But Beautiful
TTITLE9=Glad To Be Unhappy
TTITLE10=I'll Be Around
TTITLE11=The End Of A Love Affair
TTITLE12=Prelude To A Kiss
TTITLE13=A Ghost Of A Chance
TTITLE14=Gone With The Wind
TTITLE15=Come Rain Or Come Shine
TTITLE16=What's New?
TTITLE17=Fine And Mellow
TTITLE18=When Your Love Has Gone
TTITLE19=Don't Explain
EXTD=YEAR: 2013
EXTT0=
EXTT1=
EXTT2=
EXTT3=
EXTT4=
EXTT5=
EXTT6=
EXTT7=
EXTT8=
EXTT9=
EXTT10=
EXTT11=
EXTT12=
EXTT13=
EXTT14=
EXTT15=
EXTT16=
EXTT17=
EXTT18=
EXTT19=
PLAYORDER=
